<svg version="1.1" viewBox="0.0 0.0 274.65354330708664 202.13910761154855" fill="none" stroke="none" stroke-linecap="square" stroke-miterlimit="10" xmlns:xlink="http://www.w3.org/1999/xlink" xmlns="http://www.w3.org/2000/svg"><clipPath id="p.0"><path d="m0 0l274.65353 0l0 202.13911l-274.65353 0l0 -202.13911z" clip-rule="nonzero"/></clipPath><g clip-path="url(#p.0)"><path fill="#000000" fill-opacity="0.0" d="m0 0l274.65353 0l0 202.13911l-274.65353 0z" fill-rule="evenodd"/><path fill="#cccccc" d="m0 0l273.73227 0l0 200.47244l-273.73227 0z" fill-rule="evenodd"/><path stroke="#cccccc" stroke-width="1.0" stroke-linejoin="round" stroke-linecap="butt" d="m0 0l273.73227 0l0 200.47244l-273.73227 0z" fill-rule="evenodd"/><path fill="#000000" fill-opacity="0.0" d="m18.790026 189.04068l230.4567 -2.6771698" fill-rule="evenodd"/><path stroke="#434343" stroke-width="3.0" stroke-linejoin="round" stroke-linecap="butt" d="m18.790026 189.04068l230.4567 -2.6771698" fill-rule="evenodd"/><path fill="#000000" fill-opacity="0.0" d="m18.790026 189.04068l54.614174 -63.937004" fill-rule="evenodd"/><path stroke="#434343" stroke-width="3.0" stroke-linejoin="round" stroke-linecap="butt" d="m18.790026 189.04068l54.614174 -63.937004" fill-rule="evenodd"/><path fill="#000000" fill-opacity="0.0" d="m73.4042 125.772964l65.25985 41.95276" fill-rule="evenodd"/><path stroke="#434343" stroke-width="3.0" stroke-linejoin="round" stroke-linecap="butt" d="m73.4042 125.772964l65.25985 41.95276" fill-rule="evenodd"/><path fill="#000000" fill-opacity="0.0" d="m138.6798 167.72572l51.968506 -106.58268" fill-rule="evenodd"/><path stroke="#434343" stroke-width="3.0" stroke-linejoin="round" stroke-linecap="butt" d="m138.6798 167.72572l51.968506 -106.58268" fill-rule="evenodd"/><path fill="#000000" fill-opacity="0.0" d="m190.63255 61.82546l58.614166 124.56694" fill-rule="evenodd"/><path stroke="#434343" stroke-width="3.0" stroke-linejoin="round" stroke-linecap="butt" d="m190.63255 61.82546l58.614166 124.56694" fill-rule="evenodd"/></g></svg>