<svg version="1.1" viewBox="0.0 0.0 100.0 123.63779527559055" fill="none" stroke="none" stroke-linecap="square" stroke-miterlimit="10" xmlns:xlink="http://www.w3.org/1999/xlink" xmlns="http://www.w3.org/2000/svg"><clipPath id="p.0"><path d="m0 0l100.0 0l0 123.637794l-100.0 0l0 -123.637794z" clip-rule="nonzero"/></clipPath><g clip-path="url(#p.0)"><path fill="#000000" fill-opacity="0.0" d="m0 0l100.0 0l0 123.637794l-100.0 0z" fill-rule="evenodd"/><path fill="#ffffff" d="m11.548556 10.593279l0 0c0 -2.8354087 2.2985525 -5.133961 5.1339617 -5.133961l53.92105 0c1.3616104 0 2.6674576 0.54089785 3.6302643 1.5037022c0.9627991 0.9628043 1.5037003 2.2686477 1.5037003 3.630259l0 20.535227c0 2.8354073 -2.2985535 5.1339607 -5.1339645 5.1339607l-53.92105 0c-2.8354092 0 -5.1339617 -2.2985535 -5.1339617 -5.1339607z" fill-rule="evenodd"/><path stroke="#cccccc" stroke-width="1.0" stroke-linejoin="round" stroke-linecap="butt" d="m11.548556 10.593279l0 0c0 -2.8354087 2.2985525 -5.133961 5.1339617 -5.133961l53.92105 0c1.3616104 0 2.6674576 0.54089785 3.6302643 1.5037022c0.9627991 0.9628043 1.5037003 2.2686477 1.5037003 3.630259l0 20.535227c0 2.8354073 -2.2985535 5.1339607 -5.1339645 5.1339607l-53.92105 0c-2.8354092 0 -5.1339617 -2.2985535 -5.1339617 -5.1339607z" fill-rule="evenodd"/><path fill="#cfe2f3" d="m14.758531 20.860893l0 0c0 -7.08838 6.4654303 -12.834646 14.440944 -12.834646l0 0c7.9755135 0 14.440945 5.7462664 14.440945 12.834646l0 0c0 7.088379 -6.465431 12.834644 -14.440945 12.834644l0 0c-7.9755135 0 -14.440944 -5.7462654 -14.440944 -12.834644z" fill-rule="evenodd"/><path stroke="#cccccc" stroke-width="1.0" stroke-linejoin="round" stroke-linecap="butt" d="m14.758531 20.860893l0 0c0 -7.08838 6.4654303 -12.834646 14.440944 -12.834646l0 0c7.9755135 0 14.440945 5.7462664 14.440945 12.834646l0 0c0 7.088379 -6.465431 12.834644 -14.440945 12.834644l0 0c-7.9755135 0 -14.440944 -5.7462654 -14.440944 -12.834644z" fill-rule="evenodd"/><path fill="#ffffff" d="m11.548556 47.76782l0 0c0 -2.8354073 2.2985525 -5.1339607 5.1339617 -5.1339607l53.92105 0c1.3616104 0 2.6674576 0.54089737 3.6302643 1.5037041c0.9627991 0.9628029 1.5037003 2.2686462 1.5037003 3.6302567l0 20.535229c0 2.835411 -2.2985535 5.133957 -5.1339645 5.133957l-53.92105 0c-2.8354092 0 -5.1339617 -2.2985458 -5.1339617 -5.133957z" fill-rule="evenodd"/><path stroke="#cccccc" stroke-width="1.0" stroke-linejoin="round" stroke-linecap="butt" d="m11.548556 47.76782l0 0c0 -2.8354073 2.2985525 -5.1339607 5.1339617 -5.1339607l53.92105 0c1.3616104 0 2.6674576 0.54089737 3.6302643 1.5037041c0.9627991 0.9628029 1.5037003 2.2686462 1.5037003 3.6302567l0 20.535229c0 2.835411 -2.2985535 5.133957 -5.1339645 5.133957l-53.92105 0c-2.8354092 0 -5.1339617 -2.2985458 -5.1339617 -5.133957z" fill-rule="evenodd"/><path fill="#cfe2f3" d="m43.64042 58.035435l0 0c0 -7.088379 6.465431 -12.834648 14.440945 -12.834648l0 0c7.9755135 0 14.440945 5.746269 14.440945 12.834648l0 0c0 7.088375 -6.465431 12.834644 -14.440945 12.834644l0 0c-7.9755135 0 -14.440945 -5.746269 -14.440945 -12.834644z" fill-rule="evenodd"/><path stroke="#cccccc" stroke-width="1.0" stroke-linejoin="round" stroke-linecap="butt" d="m43.64042 58.035435l0 0c0 -7.088379 6.465431 -12.834648 14.440945 -12.834648l0 0c7.9755135 0 14.440945 5.746269 14.440945 12.834648l0 0c0 7.088375 -6.465431 12.834644 -14.440945 12.834644l0 0c-7.9755135 0 -14.440945 -5.746269 -14.440945 -12.834644z" fill-rule="evenodd"/><path fill="#ffffff" d="m11.548556 87.51192l0 0c0 -2.835411 2.2985525 -5.1339645 5.1339617 -5.1339645l53.92105 0c1.3616104 0 2.6674576 0.5409012 3.6302643 1.5037003c0.9627991 0.9628067 1.5037003 2.2686462 1.5037003 3.6302643l0 20.535225c0 2.835411 -2.2985535 5.133957 -5.1339645 5.133957l-53.92105 0c-2.8354092 0 -5.1339617 -2.2985458 -5.1339617 -5.133957z" fill-rule="evenodd"/><path stroke="#cccccc" stroke-width="1.0" stroke-linejoin="round" stroke-linecap="butt" d="m11.548556 87.51192l0 0c0 -2.835411 2.2985525 -5.1339645 5.1339617 -5.1339645l53.92105 0c1.3616104 0 2.6674576 0.5409012 3.6302643 1.5037003c0.9627991 0.9628067 1.5037003 2.2686462 1.5037003 3.6302643l0 20.535225c0 2.835411 -2.2985535 5.133957 -5.1339645 5.133957l-53.92105 0c-2.8354092 0 -5.1339617 -2.2985458 -5.1339617 -5.133957z" fill-rule="evenodd"/><path fill="#cfe2f3" d="m14.758531 97.779526l0 0c0 -7.088379 6.4654303 -12.8346405 14.440944 -12.8346405l0 0c7.9755135 0 14.440945 5.7462616 14.440945 12.8346405l0 0c0 7.088379 -6.465431 12.834648 -14.440945 12.834648l0 0c-7.9755135 0 -14.440944 -5.746269 -14.440944 -12.834648z" fill-rule="evenodd"/><path stroke="#cccccc" stroke-width="1.0" stroke-linejoin="round" stroke-linecap="butt" d="m14.758531 97.779526l0 0c0 -7.088379 6.4654303 -12.8346405 14.440944 -12.8346405l0 0c7.9755135 0 14.440945 5.7462616 14.440945 12.8346405l0 0c0 7.088379 -6.465431 12.834648 -14.440945 12.834648l0 0c-7.9755135 0 -14.440944 -5.746269 -14.440944 -12.834648z" fill-rule="evenodd"/></g></svg>