<svg version="1.1" viewBox="0.0 0.0 216.25721784776903 131.5511811023622" fill="none" stroke="none" stroke-linecap="square" stroke-miterlimit="10" xmlns:xlink="http://www.w3.org/1999/xlink" xmlns="http://www.w3.org/2000/svg"><clipPath id="p.0"><path d="m0 0l216.25722 0l0 131.55118l-216.25722 0l0 -131.55118z" clip-rule="nonzero"/></clipPath><g clip-path="url(#p.0)"><path fill="#000000" fill-opacity="0.0" d="m0 0l216.25722 0l0 131.55118l-216.25722 0z" fill-rule="evenodd"/><path fill="#ffffff" d="m4.312336 8.86097l0 0c0 -2.1425014 1.7368407 -3.879342 3.879343 -3.879342l197.8791 0c1.0288696 0 2.0155945 0.40871525 2.7431183 1.1362329c0.72750854 0.7275181 1.1362305 1.7142439 1.1362305 2.7431092l0 15.516905c0 2.1425018 -1.7368469 3.879343 -3.8793488 3.879343l-197.8791 0c-2.1425023 0 -3.879343 -1.7368412 -3.879343 -3.879343z" fill-rule="evenodd"/><path stroke="#cccccc" stroke-width="1.0" stroke-linejoin="round" stroke-linecap="butt" d="m4.312336 8.86097l0 0c0 -2.1425014 1.7368407 -3.879342 3.879343 -3.879342l197.8791 0c1.0288696 0 2.0155945 0.40871525 2.7431183 1.1362329c0.72750854 0.7275181 1.1362305 1.7142439 1.1362305 2.7431092l0 15.516905c0 2.1425018 -1.7368469 3.879343 -3.8793488 3.879343l-197.8791 0c-2.1425023 0 -3.879343 -1.7368412 -3.879343 -3.879343z" fill-rule="evenodd"/><path fill="#ffffff" d="m4.312336 42.78092l0 0c0 -2.1425018 1.7368407 -3.879345 3.879343 -3.879345l197.8791 0c1.0288696 0 2.0155945 0.4087181 2.7431183 1.1362343c0.72750854 0.72752 1.1362305 1.7142448 1.1362305 2.7431107l0 15.516903c0 2.1425018 -1.7368469 3.879345 -3.8793488 3.879345l-197.8791 0c-2.1425023 0 -3.879343 -1.7368431 -3.879343 -3.879345z" fill-rule="evenodd"/><path stroke="#cccccc" stroke-width="1.0" stroke-linejoin="round" stroke-linecap="butt" d="m4.312336 42.78092l0 0c0 -2.1425018 1.7368407 -3.879345 3.879343 -3.879345l197.8791 0c1.0288696 0 2.0155945 0.4087181 2.7431183 1.1362343c0.72750854 0.72752 1.1362305 1.7142448 1.1362305 2.7431107l0 15.516903c0 2.1425018 -1.7368469 3.879345 -3.8793488 3.879345l-197.8791 0c-2.1425023 0 -3.879343 -1.7368431 -3.879343 -3.879345z" fill-rule="evenodd"/><path fill="#ffffff" d="m4.312336 73.7153l0 0c0 -2.1425018 1.7368407 -3.8793411 3.879343 -3.8793411l197.8791 0c1.0288696 0 2.0155945 0.4087143 2.7431183 1.1362305c0.72750854 0.7275162 1.1362305 1.714241 1.1362305 2.7431107l0 15.516907c0 2.1425018 -1.7368469 3.8793411 -3.8793488 3.8793411l-197.8791 0c-2.1425023 0 -3.879343 -1.7368393 -3.879343 -3.8793411z" fill-rule="evenodd"/><path stroke="#cccccc" stroke-width="1.0" stroke-linejoin="round" stroke-linecap="butt" d="m4.312336 73.7153l0 0c0 -2.1425018 1.7368407 -3.8793411 3.879343 -3.8793411l197.8791 0c1.0288696 0 2.0155945 0.4087143 2.7431183 1.1362305c0.72750854 0.7275162 1.1362305 1.714241 1.1362305 2.7431107l0 15.516907c0 2.1425018 -1.7368469 3.8793411 -3.8793488 3.8793411l-197.8791 0c-2.1425023 0 -3.879343 -1.7368393 -3.879343 -3.8793411z" fill-rule="evenodd"/><path fill="#ffffff" d="m4.312336 104.65099l0 0c0 -2.1425018 1.7368407 -3.8793411 3.879343 -3.8793411l197.8791 0c1.0288696 0 2.0155945 0.4087143 2.7431183 1.1362381c0.72750854 0.7275162 1.1362305 1.714241 1.1362305 2.743103l0 15.516907c0 2.1425018 -1.7368469 3.8793411 -3.8793488 3.8793411l-197.8791 0c-2.1425023 0 -3.879343 -1.7368393 -3.879343 -3.8793411z" fill-rule="evenodd"/><path stroke="#cccccc" stroke-width="1.0" stroke-linejoin="round" stroke-linecap="butt" d="m4.312336 104.65099l0 0c0 -2.1425018 1.7368407 -3.8793411 3.879343 -3.8793411l197.8791 0c1.0288696 0 2.0155945 0.4087143 2.7431183 1.1362381c0.72750854 0.7275162 1.1362305 1.714241 1.1362305 2.743103l0 15.516907c0 2.1425018 -1.7368469 3.8793411 -3.8793488 3.8793411l-197.8791 0c-2.1425023 0 -3.879343 -1.7368393 -3.879343 -3.8793411z" fill-rule="evenodd"/></g></svg>